<mxfile host="app.diagrams.net" agent="Mozilla/5.0 (Macintosh; Intel Mac OS X 10_15_7) AppleWebKit/537.36 (KHTML, like Gecko) Chrome/134.0.0.0 Safari/537.36" version="26.1.1">
  <diagram id="R2lEEEUBdFMjLlhIrx00" name="Page-1">
    <mxGraphModel dx="1119" dy="538" grid="1" gridSize="10" guides="1" tooltips="1" connect="1" arrows="1" fold="1" page="1" pageScale="1" pageWidth="850" pageHeight="1100" math="0" shadow="0" extFonts="Permanent Marker^https://fonts.googleapis.com/css?family=Permanent+Marker">
      <root>
        <mxCell id="0" />
        <mxCell id="1" parent="0" />
        <mxCell id="VHn_a0pWJ6ZcVYro_DaE-4" value="Customer" style="rounded=0;whiteSpace=wrap;html=1;" vertex="1" parent="1">
          <mxGeometry x="170" y="170" width="120" height="60" as="geometry" />
        </mxCell>
        <mxCell id="VHn_a0pWJ6ZcVYro_DaE-5" value="Order" style="rounded=0;whiteSpace=wrap;html=1;" vertex="1" parent="1">
          <mxGeometry x="500" y="220" width="120" height="60" as="geometry" />
        </mxCell>
        <mxCell id="VHn_a0pWJ6ZcVYro_DaE-6" value="Product" style="rounded=0;whiteSpace=wrap;html=1;" vertex="1" parent="1">
          <mxGeometry x="870" y="220" width="120" height="60" as="geometry" />
        </mxCell>
        <mxCell id="VHn_a0pWJ6ZcVYro_DaE-7" value="" style="rounded=0;whiteSpace=wrap;html=1;" vertex="1" parent="1">
          <mxGeometry x="440" y="550" width="120" height="60" as="geometry" />
        </mxCell>
        <mxCell id="VHn_a0pWJ6ZcVYro_DaE-8" value="" style="rounded=0;whiteSpace=wrap;html=1;" vertex="1" parent="1">
          <mxGeometry x="190" y="550" width="120" height="60" as="geometry" />
        </mxCell>
        <mxCell id="VHn_a0pWJ6ZcVYro_DaE-9" value="" style="rounded=0;whiteSpace=wrap;html=1;" vertex="1" parent="1">
          <mxGeometry x="690" y="550" width="120" height="60" as="geometry" />
        </mxCell>
        <mxCell id="VHn_a0pWJ6ZcVYro_DaE-23" style="rounded=0;orthogonalLoop=1;jettySize=auto;html=1;exitX=0.5;exitY=1;exitDx=0;exitDy=0;entryX=0;entryY=0.25;entryDx=0;entryDy=0;endArrow=none;startFill=0;edgeStyle=elbowEdgeStyle;" edge="1" parent="1" source="VHn_a0pWJ6ZcVYro_DaE-12" target="VHn_a0pWJ6ZcVYro_DaE-4">
          <mxGeometry relative="1" as="geometry">
            <Array as="points">
              <mxPoint x="160" y="150" />
            </Array>
          </mxGeometry>
        </mxCell>
        <mxCell id="VHn_a0pWJ6ZcVYro_DaE-12" value="&lt;u&gt;Customer_ID&lt;/u&gt;" style="ellipse;whiteSpace=wrap;html=1;" vertex="1" parent="1">
          <mxGeometry x="120" y="90" width="80" height="40" as="geometry" />
        </mxCell>
        <mxCell id="VHn_a0pWJ6ZcVYro_DaE-13" value="Name" style="ellipse;whiteSpace=wrap;html=1;" vertex="1" parent="1">
          <mxGeometry x="210" y="90" width="60" height="30" as="geometry" />
        </mxCell>
        <mxCell id="VHn_a0pWJ6ZcVYro_DaE-22" style="rounded=1;orthogonalLoop=1;jettySize=auto;html=1;exitX=0.5;exitY=1;exitDx=0;exitDy=0;entryX=0;entryY=0.5;entryDx=0;entryDy=0;endArrow=none;startFill=0;edgeStyle=orthogonalEdgeStyle;" edge="1" parent="1" source="VHn_a0pWJ6ZcVYro_DaE-14" target="VHn_a0pWJ6ZcVYro_DaE-4">
          <mxGeometry relative="1" as="geometry" />
        </mxCell>
        <mxCell id="VHn_a0pWJ6ZcVYro_DaE-14" value="Address" style="ellipse;whiteSpace=wrap;html=1;" vertex="1" parent="1">
          <mxGeometry x="50" y="120" width="80" height="40" as="geometry" />
        </mxCell>
        <mxCell id="VHn_a0pWJ6ZcVYro_DaE-25" style="edgeStyle=orthogonalEdgeStyle;rounded=0;orthogonalLoop=1;jettySize=auto;html=1;exitX=0.5;exitY=1;exitDx=0;exitDy=0;entryX=1;entryY=0.5;entryDx=0;entryDy=0;endArrow=none;startFill=0;" edge="1" parent="1" source="VHn_a0pWJ6ZcVYro_DaE-15" target="VHn_a0pWJ6ZcVYro_DaE-4">
          <mxGeometry relative="1" as="geometry" />
        </mxCell>
        <mxCell id="VHn_a0pWJ6ZcVYro_DaE-15" value="Password" style="ellipse;whiteSpace=wrap;html=1;" vertex="1" parent="1">
          <mxGeometry x="280" y="90" width="80" height="40" as="geometry" />
        </mxCell>
        <mxCell id="VHn_a0pWJ6ZcVYro_DaE-24" style="rounded=0;orthogonalLoop=1;jettySize=auto;html=1;exitX=0.5;exitY=1;exitDx=0;exitDy=0;entryX=0.573;entryY=-0.012;entryDx=0;entryDy=0;entryPerimeter=0;endArrow=none;startFill=0;" edge="1" parent="1" source="VHn_a0pWJ6ZcVYro_DaE-13" target="VHn_a0pWJ6ZcVYro_DaE-4">
          <mxGeometry relative="1" as="geometry" />
        </mxCell>
        <mxCell id="VHn_a0pWJ6ZcVYro_DaE-27" style="edgeStyle=orthogonalEdgeStyle;rounded=0;orthogonalLoop=1;jettySize=auto;html=1;exitX=0.5;exitY=1;exitDx=0;exitDy=0;entryX=0.5;entryY=0;entryDx=0;entryDy=0;" edge="1" parent="1" source="VHn_a0pWJ6ZcVYro_DaE-26" target="VHn_a0pWJ6ZcVYro_DaE-5">
          <mxGeometry relative="1" as="geometry" />
        </mxCell>
        <mxCell id="VHn_a0pWJ6ZcVYro_DaE-26" value="&lt;u&gt;ORDER_ID&lt;/u&gt;" style="ellipse;whiteSpace=wrap;html=1;" vertex="1" parent="1">
          <mxGeometry x="510" y="140" width="80" height="30" as="geometry" />
        </mxCell>
        <mxCell id="VHn_a0pWJ6ZcVYro_DaE-28" value="Order_date" style="ellipse;whiteSpace=wrap;html=1;" vertex="1" parent="1">
          <mxGeometry x="610" y="140" width="80" height="30" as="geometry" />
        </mxCell>
        <mxCell id="VHn_a0pWJ6ZcVYro_DaE-33" style="edgeStyle=orthogonalEdgeStyle;rounded=0;orthogonalLoop=1;jettySize=auto;html=1;exitX=0.5;exitY=1;exitDx=0;exitDy=0;entryX=0;entryY=0.5;entryDx=0;entryDy=0;" edge="1" parent="1" source="VHn_a0pWJ6ZcVYro_DaE-29" target="VHn_a0pWJ6ZcVYro_DaE-5">
          <mxGeometry relative="1" as="geometry" />
        </mxCell>
        <mxCell id="VHn_a0pWJ6ZcVYro_DaE-29" value="VAT" style="ellipse;whiteSpace=wrap;html=1;" vertex="1" parent="1">
          <mxGeometry x="430" y="170" width="80" height="30" as="geometry" />
        </mxCell>
        <mxCell id="VHn_a0pWJ6ZcVYro_DaE-30" value="CUSTOMER_ID" style="ellipse;whiteSpace=wrap;html=1;" vertex="1" parent="1">
          <mxGeometry x="650" y="190" width="100" height="40" as="geometry" />
        </mxCell>
        <mxCell id="VHn_a0pWJ6ZcVYro_DaE-31" style="edgeStyle=orthogonalEdgeStyle;rounded=0;orthogonalLoop=1;jettySize=auto;html=1;exitX=0.5;exitY=1;exitDx=0;exitDy=0;entryX=0.97;entryY=0.621;entryDx=0;entryDy=0;entryPerimeter=0;" edge="1" parent="1" source="VHn_a0pWJ6ZcVYro_DaE-30" target="VHn_a0pWJ6ZcVYro_DaE-5">
          <mxGeometry relative="1" as="geometry" />
        </mxCell>
        <mxCell id="VHn_a0pWJ6ZcVYro_DaE-32" style="edgeStyle=orthogonalEdgeStyle;rounded=0;orthogonalLoop=1;jettySize=auto;html=1;exitX=0.5;exitY=1;exitDx=0;exitDy=0;entryX=0.818;entryY=0.021;entryDx=0;entryDy=0;entryPerimeter=0;" edge="1" parent="1" source="VHn_a0pWJ6ZcVYro_DaE-28" target="VHn_a0pWJ6ZcVYro_DaE-5">
          <mxGeometry relative="1" as="geometry" />
        </mxCell>
        <mxCell id="VHn_a0pWJ6ZcVYro_DaE-35" style="edgeStyle=orthogonalEdgeStyle;rounded=0;orthogonalLoop=1;jettySize=auto;html=1;exitX=0;exitY=0.5;exitDx=0;exitDy=0;entryX=0.5;entryY=1;entryDx=0;entryDy=0;" edge="1" parent="1" source="VHn_a0pWJ6ZcVYro_DaE-34" target="VHn_a0pWJ6ZcVYro_DaE-4">
          <mxGeometry relative="1" as="geometry" />
        </mxCell>
        <mxCell id="VHn_a0pWJ6ZcVYro_DaE-34" value="Places" style="rhombus;whiteSpace=wrap;html=1;" vertex="1" parent="1">
          <mxGeometry x="310" y="260" width="80" height="80" as="geometry" />
        </mxCell>
        <mxCell id="VHn_a0pWJ6ZcVYro_DaE-36" style="edgeStyle=orthogonalEdgeStyle;rounded=0;orthogonalLoop=1;jettySize=auto;html=1;exitX=1;exitY=0.5;exitDx=0;exitDy=0;entryX=0.537;entryY=1.012;entryDx=0;entryDy=0;entryPerimeter=0;" edge="1" parent="1" source="VHn_a0pWJ6ZcVYro_DaE-34" target="VHn_a0pWJ6ZcVYro_DaE-5">
          <mxGeometry relative="1" as="geometry" />
        </mxCell>
        <mxCell id="VHn_a0pWJ6ZcVYro_DaE-57" style="edgeStyle=orthogonalEdgeStyle;rounded=0;orthogonalLoop=1;jettySize=auto;html=1;exitX=0.5;exitY=1;exitDx=0;exitDy=0;entryX=0.75;entryY=0;entryDx=0;entryDy=0;endArrow=none;startFill=0;" edge="1" parent="1" source="VHn_a0pWJ6ZcVYro_DaE-37" target="VHn_a0pWJ6ZcVYro_DaE-6">
          <mxGeometry relative="1" as="geometry" />
        </mxCell>
        <mxCell id="VHn_a0pWJ6ZcVYro_DaE-37" value="&lt;u&gt;Product_ID&lt;/u&gt;" style="ellipse;whiteSpace=wrap;html=1;" vertex="1" parent="1">
          <mxGeometry x="980" y="125" width="90" height="35" as="geometry" />
        </mxCell>
        <mxCell id="VHn_a0pWJ6ZcVYro_DaE-60" style="edgeStyle=orthogonalEdgeStyle;rounded=0;orthogonalLoop=1;jettySize=auto;html=1;exitX=0;exitY=0.5;exitDx=0;exitDy=0;entryX=1;entryY=0.5;entryDx=0;entryDy=0;endArrow=none;startFill=0;" edge="1" parent="1" source="VHn_a0pWJ6ZcVYro_DaE-38" target="VHn_a0pWJ6ZcVYro_DaE-6">
          <mxGeometry relative="1" as="geometry" />
        </mxCell>
        <mxCell id="VHn_a0pWJ6ZcVYro_DaE-38" value="Name" style="ellipse;whiteSpace=wrap;html=1;" vertex="1" parent="1">
          <mxGeometry x="1050" y="235" width="80" height="30" as="geometry" />
        </mxCell>
        <mxCell id="VHn_a0pWJ6ZcVYro_DaE-59" style="edgeStyle=orthogonalEdgeStyle;rounded=0;orthogonalLoop=1;jettySize=auto;html=1;exitX=0;exitY=0.5;exitDx=0;exitDy=0;entryX=1;entryY=0.25;entryDx=0;entryDy=0;endArrow=none;startFill=0;" edge="1" parent="1" source="VHn_a0pWJ6ZcVYro_DaE-39" target="VHn_a0pWJ6ZcVYro_DaE-6">
          <mxGeometry relative="1" as="geometry" />
        </mxCell>
        <mxCell id="VHn_a0pWJ6ZcVYro_DaE-39" value="Brand" style="ellipse;whiteSpace=wrap;html=1;" vertex="1" parent="1">
          <mxGeometry x="1030" y="190" width="80" height="30" as="geometry" />
        </mxCell>
        <mxCell id="VHn_a0pWJ6ZcVYro_DaE-61" style="edgeStyle=orthogonalEdgeStyle;rounded=0;orthogonalLoop=1;jettySize=auto;html=1;exitX=0.5;exitY=0;exitDx=0;exitDy=0;entryX=1;entryY=0.75;entryDx=0;entryDy=0;endArrow=none;startFill=0;" edge="1" parent="1" source="VHn_a0pWJ6ZcVYro_DaE-40" target="VHn_a0pWJ6ZcVYro_DaE-6">
          <mxGeometry relative="1" as="geometry" />
        </mxCell>
        <mxCell id="VHn_a0pWJ6ZcVYro_DaE-40" value="Stock_Quantity" style="ellipse;whiteSpace=wrap;html=1;" vertex="1" parent="1">
          <mxGeometry x="980" y="310" width="110" height="30" as="geometry" />
        </mxCell>
        <mxCell id="VHn_a0pWJ6ZcVYro_DaE-58" style="edgeStyle=orthogonalEdgeStyle;rounded=0;orthogonalLoop=1;jettySize=auto;html=1;exitX=0.5;exitY=1;exitDx=0;exitDy=0;entryX=0.25;entryY=0;entryDx=0;entryDy=0;endArrow=none;startFill=0;" edge="1" parent="1" source="VHn_a0pWJ6ZcVYro_DaE-41" target="VHn_a0pWJ6ZcVYro_DaE-6">
          <mxGeometry relative="1" as="geometry" />
        </mxCell>
        <mxCell id="VHn_a0pWJ6ZcVYro_DaE-41" value="Warinty_Period" style="ellipse;whiteSpace=wrap;html=1;" vertex="1" parent="1">
          <mxGeometry x="800" y="150" width="110" height="30" as="geometry" />
        </mxCell>
        <mxCell id="VHn_a0pWJ6ZcVYro_DaE-43" value="" style="ellipse;whiteSpace=wrap;html=1;" vertex="1" parent="1">
          <mxGeometry x="870" y="80" width="110" height="60" as="geometry" />
        </mxCell>
        <mxCell id="VHn_a0pWJ6ZcVYro_DaE-44" value="Category" style="ellipse;whiteSpace=wrap;html=1;" vertex="1" parent="1">
          <mxGeometry x="880" y="87.5" width="90" height="42.5" as="geometry" />
        </mxCell>
        <mxCell id="VHn_a0pWJ6ZcVYro_DaE-46" value="Electronic" style="ellipse;whiteSpace=wrap;html=1;" vertex="1" parent="1">
          <mxGeometry x="770" y="30" width="100" height="40" as="geometry" />
        </mxCell>
        <mxCell id="VHn_a0pWJ6ZcVYro_DaE-51" style="edgeStyle=orthogonalEdgeStyle;rounded=0;orthogonalLoop=1;jettySize=auto;html=1;exitX=0.5;exitY=1;exitDx=0;exitDy=0;entryX=0.5;entryY=0;entryDx=0;entryDy=0;endArrow=none;startFill=0;" edge="1" parent="1" source="VHn_a0pWJ6ZcVYro_DaE-48" target="VHn_a0pWJ6ZcVYro_DaE-43">
          <mxGeometry relative="1" as="geometry" />
        </mxCell>
        <mxCell id="VHn_a0pWJ6ZcVYro_DaE-48" value="Accessories" style="ellipse;whiteSpace=wrap;html=1;" vertex="1" parent="1">
          <mxGeometry x="880" y="10" width="90" height="30" as="geometry" />
        </mxCell>
        <mxCell id="VHn_a0pWJ6ZcVYro_DaE-50" style="edgeStyle=orthogonalEdgeStyle;rounded=0;orthogonalLoop=1;jettySize=auto;html=1;exitX=0.5;exitY=1;exitDx=0;exitDy=0;entryX=1;entryY=0.5;entryDx=0;entryDy=0;endArrow=none;startFill=0;" edge="1" parent="1" source="VHn_a0pWJ6ZcVYro_DaE-49" target="VHn_a0pWJ6ZcVYro_DaE-43">
          <mxGeometry relative="1" as="geometry" />
        </mxCell>
        <mxCell id="VHn_a0pWJ6ZcVYro_DaE-49" value="Appliances" style="ellipse;whiteSpace=wrap;html=1;" vertex="1" parent="1">
          <mxGeometry x="990" y="30" width="100" height="40" as="geometry" />
        </mxCell>
        <mxCell id="VHn_a0pWJ6ZcVYro_DaE-52" style="edgeStyle=orthogonalEdgeStyle;rounded=0;orthogonalLoop=1;jettySize=auto;html=1;exitX=0.5;exitY=1;exitDx=0;exitDy=0;entryX=0;entryY=0.667;entryDx=0;entryDy=0;entryPerimeter=0;endArrow=none;startFill=0;" edge="1" parent="1" source="VHn_a0pWJ6ZcVYro_DaE-46" target="VHn_a0pWJ6ZcVYro_DaE-43">
          <mxGeometry relative="1" as="geometry" />
        </mxCell>
        <mxCell id="VHn_a0pWJ6ZcVYro_DaE-53" style="edgeStyle=orthogonalEdgeStyle;rounded=0;orthogonalLoop=1;jettySize=auto;html=1;exitX=0.5;exitY=1;exitDx=0;exitDy=0;entryX=0.46;entryY=-0.036;entryDx=0;entryDy=0;entryPerimeter=0;endArrow=none;startFill=0;" edge="1" parent="1" source="VHn_a0pWJ6ZcVYro_DaE-43" target="VHn_a0pWJ6ZcVYro_DaE-6">
          <mxGeometry relative="1" as="geometry" />
        </mxCell>
      </root>
    </mxGraphModel>
  </diagram>
</mxfile>
